<?xml version="1.0" encoding="utf-8"?>
<!-- Generator: Adobe Illustrator 23.0.3, SVG Export Plug-In . SVG Version: 6.00 Build 0)  -->
<svg version="1.1" id="Layer_1" xmlns="http://www.w3.org/2000/svg" xmlns:xlink="http://www.w3.org/1999/xlink" x="0px" y="0px"
	 viewBox="0 0 15 15" style="enable-background:new 0 0 15 15;" xml:space="preserve">
<style type="text/css">
	.st0{fill:#FFFFFF;}
</style>
<path class="st0" d="M7.5,0l0.3,0.8h0.8L7.9,1.3l0.3,0.8L7.5,1.6L6.8,2.1l0.3-0.8L6.4,0.8h0.8L7.5,0z M10.7,0.9l0.3,0.8h0.8
	l-0.7,0.5L11.4,3l-0.7-0.5L10,3l0.3-0.8L9.6,1.7h0.8L10.7,0.9z M13,3.2L13.3,4h0.8l-0.7,0.5l0.3,0.8L13,4.8l-0.7,0.5l0.3-0.8L11.9,4
	h0.8L13,3.2z M13.9,6.5l0.3,0.8H15l-0.7,0.5l0.3,0.8l-0.7-0.5l-0.7,0.5l0.3-0.8l-0.7-0.5h0.8L13.9,6.5z M13,9.7l0.3,0.8h0.8L13.4,11
	l0.3,0.8L13,11.3l-0.7,0.5l0.3-0.8l-0.7-0.5h0.8L13,9.7z M10.7,12l0.3,0.8h0.8l-0.7,0.5l0.3,0.8l-0.7-0.5L10,14.1l0.3-0.8l-0.7-0.5
	h0.8L10.7,12z M7.5,12.9l0.3,0.8h0.8l-0.7,0.5L8.2,15l-0.7-0.5L6.8,15l0.3-0.8l-0.7-0.5h0.8L7.5,12.9z M4.3,12l0.3,0.8h0.8l-0.7,0.5
	L5,14.1l-0.7-0.5l-0.7,0.5l0.3-0.8l-0.7-0.5H4L4.3,12z M1.9,9.7l0.3,0.8H3L2.4,11l0.3,0.8l-0.7-0.5l-0.7,0.5L1.5,11l-0.7-0.5h0.8
	L1.9,9.7z M1.1,6.5l0.3,0.8h0.8L1.5,7.7l0.3,0.8L1.1,8.1L0.4,8.5l0.3-0.8L0,7.3h0.8L1.1,6.5z M1.9,3.2L2.2,4H3L2.4,4.5l0.3,0.8
	L1.9,4.8L1.3,5.3l0.3-0.8L0.9,4h0.8L1.9,3.2z M4.3,0.9l0.3,0.8h0.8L4.7,2.2L5,3L4.3,2.5L3.6,3l0.3-0.8L3.2,1.7H4L4.3,0.9z"/>
</svg>
